<?xml version="1.0" encoding="UTF-8" standalone="no"?><!DOCTYPE svg PUBLIC "-//W3C//DTD SVG 1.1//EN" "http://www.w3.org/Graphics/SVG/1.1/DTD/svg11.dtd"><svg width="100%" height="100%" viewBox="0 0 369 117" version="1.1" xmlns="http://www.w3.org/2000/svg" xmlns:xlink="http://www.w3.org/1999/xlink" xml:space="preserve" xmlns:serif="http://www.serif.com/" style="fill-rule:evenodd;clip-rule:evenodd;stroke-linejoin:round;stroke-miterlimit:2;"><g><path d="M0,116.64l0,-116.64l37.008,0c7.008,0 12.72,1.32 17.136,3.96c4.416,2.64 7.704,6.456 9.864,11.448c2.16,4.992 3.24,11.04 3.24,18.144c0,8.352 -1.416,14.88 -4.248,19.584c-2.832,4.704 -6.696,8.04 -11.592,10.008c-4.896,1.968 -10.512,2.952 -16.848,2.952l-10.8,0l0,50.544l-23.76,0Zm23.76,-67.248l8.352,0c3.456,0 6.12,-0.552 7.992,-1.656c1.872,-1.104 3.144,-2.856 3.816,-5.256c0.672,-2.4 1.008,-5.472 1.008,-9.216c0,-3.552 -0.264,-6.528 -0.792,-8.928c-0.528,-2.4 -1.704,-4.272 -3.528,-5.616c-1.824,-1.344 -4.704,-2.016 -8.64,-2.016l-8.208,0l0,32.688Z" style="fill-rule:nonzero;"/><path d="M68.688,116.64l22.608,-116.64l26.352,0l22.464,116.64l-22.032,0l-4.176,-25.632l-18.432,0l-4.464,25.632l-22.32,0Zm28.944,-40.176l13.968,0l-7.056,-47.088l-6.912,47.088Z" style="fill-rule:nonzero;"/><path d="M153.36,116.64l0,-116.64l37.008,0c7.008,0 12.72,1.32 17.136,3.96c4.416,2.64 7.704,6.456 9.864,11.448c2.16,4.992 3.24,11.04 3.24,18.144c0,8.352 -1.416,14.88 -4.248,19.584c-2.832,4.704 -6.696,8.04 -11.592,10.008c-4.896,1.968 -10.512,2.952 -16.848,2.952l-10.8,0l0,50.544l-23.76,0Zm23.76,-67.248l8.352,0c3.456,0 6.12,-0.552 7.992,-1.656c1.872,-1.104 3.144,-2.856 3.816,-5.256c0.672,-2.4 1.008,-5.472 1.008,-9.216c0,-3.552 -0.264,-6.528 -0.792,-8.928c-0.528,-2.4 -1.704,-4.272 -3.528,-5.616c-1.824,-1.344 -4.704,-2.016 -8.64,-2.016l-8.208,0l0,32.688Z" style="fill-rule:nonzero;"/><path d="M234.288,116.64l0,-116.64l50.832,0l0,16.416l-27.072,0l0,30.96l20.88,0l0,16.56l-20.88,0l0,36.576l27.36,0l0,16.128l-51.12,0Z" style="fill-rule:nonzero;"/><path d="M298.8,116.64l0,-116.64l30.24,0c7.872,0 14.616,0.888 20.232,2.664c5.616,1.776 9.936,4.92 12.96,9.432c3.024,4.512 4.536,10.752 4.536,18.72c0,4.8 -0.408,9.048 -1.224,12.744c-0.816,3.696 -2.256,6.912 -4.32,9.648c-2.064,2.736 -4.968,4.92 -8.712,6.552l16.128,56.88l-24.336,0l-13.392,-52.848l-8.352,0l-0,52.848l-23.76,0Zm23.76,-66.96l6.912,0c3.84,0 6.864,-0.624 9.072,-1.872c2.208,-1.248 3.768,-3.144 4.68,-5.688c0.912,-2.544 1.368,-5.688 1.368,-9.432c0,-5.376 -0.984,-9.48 -2.952,-12.312c-1.968,-2.832 -5.64,-4.248 -11.016,-4.248l-8.064,0l0,33.552Z" style="fill-rule:nonzero;"/></g></svg>