<?xml version="1.0" encoding="UTF-8" standalone="no"?><!DOCTYPE svg PUBLIC "-//W3C//DTD SVG 1.1//EN" "http://www.w3.org/Graphics/SVG/1.1/DTD/svg11.dtd"><svg width="100%" height="100%" viewBox="0 0 320 120" version="1.1" xmlns="http://www.w3.org/2000/svg" xmlns:xlink="http://www.w3.org/1999/xlink" xml:space="preserve" xmlns:serif="http://www.serif.com/" style="fill-rule:evenodd;clip-rule:evenodd;stroke-linejoin:round;stroke-miterlimit:2;"><g><path d="M0,118.08l0,-116.64l30.24,-0c7.872,-0 14.616,0.888 20.232,2.664c5.616,1.776 9.936,4.92 12.96,9.432c3.024,4.512 4.536,10.752 4.536,18.72c0,4.8 -0.408,9.048 -1.224,12.744c-0.816,3.696 -2.256,6.912 -4.32,9.648c-2.064,2.736 -4.968,4.92 -8.712,6.552l16.128,56.88l-24.336,0l-13.392,-52.848l-8.352,0l0,52.848l-23.76,0Zm23.76,-66.96l6.912,0c3.84,0 6.864,-0.624 9.072,-1.872c2.208,-1.248 3.768,-3.144 4.68,-5.688c0.912,-2.544 1.368,-5.688 1.368,-9.432c-0,-5.376 -0.984,-9.48 -2.952,-12.312c-1.968,-2.832 -5.64,-4.248 -11.016,-4.248l-8.064,0l0,33.552Z" style="fill-rule:nonzero;"/><path d="M117.072,119.664c-8.544,-0 -15.312,-1.536 -20.304,-4.608c-4.992,-3.072 -8.568,-7.464 -10.728,-13.176c-2.16,-5.712 -3.24,-12.552 -3.24,-20.52l0,-43.488c0,-7.968 1.08,-14.784 3.24,-20.448c2.16,-5.664 5.736,-9.984 10.728,-12.96c4.992,-2.976 11.76,-4.464 20.304,-4.464c8.64,0 15.48,1.512 20.52,4.536c5.04,3.024 8.64,7.344 10.8,12.96c2.16,5.616 3.24,12.408 3.24,20.376l-0,43.488c-0,7.968 -1.08,14.808 -3.24,20.52c-2.16,5.712 -5.76,10.104 -10.8,13.176c-5.04,3.072 -11.88,4.608 -20.52,4.608Zm-0,-17.136c3.072,0 5.328,-0.696 6.768,-2.088c1.44,-1.392 2.4,-3.264 2.88,-5.616c0.48,-2.352 0.72,-4.872 0.72,-7.56l-0,-55.152c-0,-2.688 -0.24,-5.184 -0.72,-7.488c-0.48,-2.304 -1.44,-4.152 -2.88,-5.544c-1.44,-1.392 -3.696,-2.088 -6.768,-2.088c-2.88,-0 -5.04,0.696 -6.48,2.088c-1.44,1.392 -2.4,3.24 -2.88,5.544c-0.48,2.304 -0.72,4.8 -0.72,7.488l-0,55.152c-0,2.688 0.216,5.208 0.648,7.56c0.432,2.352 1.368,4.224 2.808,5.616c1.44,1.392 3.648,2.088 6.624,2.088Z" style="fill-rule:nonzero;"/><path d="M201.312,119.664c-8.64,-0 -15.48,-1.632 -20.52,-4.896c-5.04,-3.264 -8.568,-7.8 -10.584,-13.608c-2.016,-5.808 -3.024,-12.552 -3.024,-20.232l0,-41.904c0,-8.064 1.008,-15 3.024,-20.808c2.016,-5.808 5.544,-10.296 10.584,-13.464c5.04,-3.168 11.88,-4.752 20.52,-4.752c8.352,0 14.904,1.392 19.656,4.176c4.752,2.784 8.112,6.72 10.08,11.808c1.968,5.088 2.952,10.992 2.952,17.712l-0,9.792l-23.04,0l-0,-10.944c-0,-2.688 -0.144,-5.208 -0.432,-7.56c-0.288,-2.352 -1.08,-4.272 -2.376,-5.76c-1.296,-1.488 -3.528,-2.232 -6.696,-2.232c-3.168,0 -5.472,0.768 -6.912,2.304c-1.44,1.536 -2.352,3.528 -2.736,5.976c-0.384,2.448 -0.576,5.16 -0.576,8.136l-0,52.992c-0,3.264 0.264,6.12 0.792,8.568c0.528,2.448 1.536,4.32 3.024,5.616c1.488,1.296 3.624,1.944 6.408,1.944c3.072,0 5.256,-0.744 6.552,-2.232c1.296,-1.488 2.112,-3.48 2.448,-5.976c0.336,-2.496 0.504,-5.136 0.504,-7.92l-0,-11.376l23.04,0l-0,9.648c-0,6.816 -0.96,12.84 -2.88,18.072c-1.92,5.232 -5.232,9.36 -9.936,12.384c-4.704,3.024 -11.328,4.536 -19.872,4.536Z" style="fill-rule:nonzero;"/><path d="M249.984,118.08l-0,-116.64l23.76,-0l-0,49.248l21.024,-49.248l23.04,-0l-21.888,52.416l23.472,64.224l-23.904,-0l-18,-52.272l-3.744,6.624l-0,45.648l-23.76,-0Z" style="fill-rule:nonzero;"/></g></svg>